<?xml version="1.0" encoding="UTF-8"?>
<svg version="1.1" xmlns="http://www.w3.org/2000/svg" width="366" height="122">
<path d="M0 0 C120.78 0 241.56 0 366 0 C366 40.26 366 80.52 366 122 C245.22 122 124.44 122 0 122 C0 81.74 0 41.48 0 0 Z " fill="#FDFDFD" transform="translate(0,0)"/>
<path d="M0 0 C54.45 0 108.9 0 165 0 C165 25.74 165 51.48 165 78 C110.55 78 56.1 78 0 78 C0 52.26 0 26.52 0 0 Z " fill="#020202" transform="translate(18,23)"/>
<path d="M0 0 C120.78 0 241.56 0 366 0 C366 40.26 366 80.52 366 122 C245.22 122 124.44 122 0 122 C0 81.74 0 41.48 0 0 Z M9 14 C9 45.68 9 77.36 9 110 C123.84 110 238.68 110 357 110 C357 78.32 357 46.64 357 14 C242.16 14 127.32 14 9 14 Z " fill="#FDFDFD" transform="translate(0,0)"/>
<path d="M0 0 C114.84 0 229.68 0 348 0 C348 31.68 348 63.36 348 96 C233.16 96 118.32 96 0 96 C0 64.32 0 32.64 0 0 Z M2 3 C2 32.7 2 62.4 2 93 C115.19 93 228.38 93 345 93 C345 63.3 345 33.6 345 3 C231.81 3 118.62 3 2 3 Z " fill="#020202" transform="translate(9,14)"/>
<path d="M0 0 C14.48011207 -0.40981449 14.48011207 -0.40981449 20 3 C22.80168958 6.24406162 23.9043675 8.23494 24.4375 12.5 C23.84348952 17.25208386 22.58576214 20.56290306 19 23.8125 C13.2302796 27.23827149 6.48218127 26.05946955 0 26 C0 17.42 0 8.84 0 0 Z " fill="#0C0C0C" transform="translate(287,48)"/>
<path d="M0 0 C4.13947368 2.54013158 4.13947368 2.54013158 5.75 4.6875 C5.75 5.6775 5.75 6.6675 5.75 7.6875 C0.125 7.9375 0.125 7.9375 -3.25 5.6875 C-8.09707318 5.097755 -8.09707318 5.097755 -12.25 7.25 C-13.68452262 10.74664889 -13.17093323 13.06954804 -12.25 16.6875 C-11.20625978 18.73201019 -11.20625978 18.73201019 -9.25 19.6875 C-6.29253508 20.27095476 -6.29253508 20.27095476 -3.25 19.6875 C-0.87280307 17.81248069 -0.87280307 17.81248069 0.75 15.6875 C-1.89 15.6875 -4.53 15.6875 -7.25 15.6875 C-7.25 14.0375 -7.25 12.3875 -7.25 10.6875 C-2.3 10.6875 2.65 10.6875 7.75 10.6875 C7.75 16.89779673 7.49553082 18.13212468 3.75 22.6875 C-0.19047325 26.26974841 -4.47356408 26.24127982 -9.58203125 26.1171875 C-13.76447933 25.44358678 -15.43877547 23.7946429 -18.25 20.6875 C-20.35169635 16.48410729 -19.78638925 11.25276849 -19.25 6.6875 C-17.67206032 3.36751491 -15.32949876 1.47913242 -12.375 -0.6875 C-7.8996894 -2.00376782 -4.3005419 -1.73675731 0 0 Z " fill="#0D0D0D" transform="translate(222.25,48.3125)"/>
<path d="M0 0 C2.3925 -0.0825 4.785 -0.165 7.25 -0.25 C7.99668945 -0.28641602 8.74337891 -0.32283203 9.51269531 -0.36035156 C12.88911888 -0.41665556 14.68527194 -0.2343936 17.41796875 1.80078125 C19.68156157 4.94745473 20.06775551 7.13793607 20 11 C17.5625 13.9375 17.5625 13.9375 15 16 C16.33488128 19.59391114 17.96022723 22.75490696 20 26 C17.8125 25.9375 17.8125 25.9375 15 25 C13.765625 23.41015625 13.765625 23.41015625 12.5625 21.5 C10.62125136 18.47684527 10.35668325 18.10094809 6.6875 17.0625 C5.800625 17.041875 4.91375 17.02125 4 17 C4 19.97 4 22.94 4 26 C2.68 26 1.36 26 0 26 C0 17.42 0 8.84 0 0 Z " fill="#E3E3E3" transform="translate(51,48)"/>
<path d="M0 0 C1.98 0 3.96 0 6 0 C6.04898438 1.27617188 6.09796875 2.55234375 6.1484375 3.8671875 C6.22346191 5.53648072 6.29900988 7.20575046 6.375 8.875 C6.4059375 9.71675781 6.436875 10.55851562 6.46875 11.42578125 C6.50742188 12.23144531 6.54609375 13.03710938 6.5859375 13.8671875 C6.6173584 14.61081543 6.6487793 15.35444336 6.68115234 16.12060547 C6.85419551 18.24010974 6.85419551 18.24010974 9 20 C10.98 20 12.96 20 15 20 C15.33 13.4 15.66 6.8 16 0 C17.98 0 19.96 0 22 0 C22.11667875 3.22886009 22.18740546 6.45717445 22.25 9.6875 C22.30027344 11.05551758 22.30027344 11.05551758 22.3515625 12.45117188 C22.41507561 16.81769795 22.43722486 19.28725121 20.109375 23.08203125 C16.39334534 26.46086562 13.36050463 26.38756072 8.484375 26.359375 C6 26 6 26 2.9375 23.625 C0.46014989 20.26859017 -0.1248986 18.73479074 -0.09765625 14.6484375 C-0.09443359 13.79765625 -0.09121094 12.946875 -0.08789062 12.0703125 C-0.07951172 11.18085937 -0.07113281 10.29140625 -0.0625 9.375 C-0.05798828 8.4778125 -0.05347656 7.580625 -0.04882812 6.65625 C-0.03702591 4.43743352 -0.02056155 2.21874982 0 0 Z " fill="#080808" transform="translate(238,48)"/>
<path d="M0 0 C5.61 0 11.22 0 17 0 C17 1.65 17 3.3 17 5 C13.37 5 9.74 5 6 5 C6 6.65 6 8.3 6 10 C9.3 10 12.6 10 16 10 C16 11.65 16 13.3 16 15 C12.7 15 9.4 15 6 15 C6 16.98 6 18.96 6 21 C9.96 21 13.92 21 18 21 C18 22.65 18 24.3 18 26 C12.06 26 6.12 26 0 26 C0 17.42 0 8.84 0 0 Z " fill="#070707" transform="translate(320,48)"/>
<path d="M0 0 C1.32 0 2.64 0 4 0 C5.67239921 3.95593578 7.33694382 7.9151284 9 11.875 C9.47695312 13.00292969 9.95390625 14.13085938 10.4453125 15.29296875 C11.12207031 16.90751953 11.12207031 16.90751953 11.8125 18.5546875 C12.23144531 19.54968262 12.65039062 20.54467773 13.08203125 21.56982422 C14 24 14 24 14 26 C12.68 26 11.36 26 10 26 C9.34 24.35 8.68 22.7 8 21 C3.71 20.67 -0.58 20.34 -5 20 C-5.33 21.65 -5.66 23.3 -6 25 C-7.32 25.33 -8.64 25.66 -10 26 C-9.385789 22.38549563 -8.39633734 19.27609839 -6.93359375 15.91796875 C-6.53076172 14.98662109 -6.12792969 14.05527344 -5.71289062 13.09570312 C-5.29201172 12.13599609 -4.87113281 11.17628906 -4.4375 10.1875 C-4.01275391 9.20845703 -3.58800781 8.22941406 -3.15039062 7.22070312 C-2.10460494 4.81187093 -1.05435216 2.40509197 0 0 Z " fill="#EDEDED" transform="translate(87,48)"/>
<path d="M0 0 C5.28 0 10.56 0 16 0 C16 0.99 16 1.98 16 3 C12.04 3 8.08 3 4 3 C4 5.64 4 8.28 4 11 C7.96 11 11.92 11 16 11 C16 11.99 16 12.98 16 14 C12.04 14 8.08 14 4 14 C4 16.97 4 19.94 4 23 C8.29 23 12.58 23 17 23 C17 23.99 17 24.98 17 26 C11.39 26 5.78 26 0 26 C0 17.42 0 8.84 0 0 Z " fill="#E7E7E7" transform="translate(136,48)"/>
<path d="M0 0 C1.87988281 0.24780273 1.87988281 0.24780273 4 1 C5.09667969 2.76586914 5.09667969 2.76586914 5.921875 5.03515625 C6.37626953 6.24848633 6.37626953 6.24848633 6.83984375 7.48632812 C7.14019531 8.33646484 7.44054687 9.18660156 7.75 10.0625 C8.22373047 11.34350586 8.22373047 11.34350586 8.70703125 12.65039062 C9.48567191 14.76215849 10.24916297 16.87822066 11 19 C13.91116258 12.74042512 16.66984861 6.49989597 19 0 C20.32 0 21.64 0 23 0 C22.03154551 3.01296952 21.02705092 6.006662 20 9 C19.78005371 9.65355469 19.56010742 10.30710937 19.33349609 10.98046875 C18.59359613 13.15997288 17.83007871 15.33010475 17.0625 17.5 C16.82192871 18.21865234 16.58135742 18.93730469 16.33349609 19.67773438 C15.59765625 21.71875 15.59765625 21.71875 14 25 C11.80859375 25.96875 11.80859375 25.96875 10 26 C7.12556539 20.6933515 4.87129903 15.26501167 2.75 9.625 C2.34467041 8.55378906 2.34467041 8.55378906 1.93115234 7.4609375 C0 2.25489851 0 2.25489851 0 0 Z " fill="#EAEAEA" transform="translate(106,48)"/>
<path d="M0 0 C1.98 0 3.96 0 6 0 C6 8.58 6 17.16 6 26 C4.02 26 2.04 26 0 26 C0 17.42 0 8.84 0 0 Z " fill="#111111" transform="translate(270,48)"/>
<path d="M0 0 C7.05263158 0 7.05263158 0 10 2 C12 5 12 5 11.8125 8.5 C11 12 11 12 9.9375 13.9375 C6.72427107 15.69959328 3.6157826 15.17782537 0 15 C0 10.05 0 5.1 0 0 Z " fill="#F6F6F6" transform="translate(293,53)"/>
<path d="M0 0 C6.6 0 13.2 0 20 0 C20 0.99 20 1.98 20 3 C17.36 3 14.72 3 12 3 C12 10.59 12 18.18 12 26 C10.68 26 9.36 26 8 26 C8 18.41 8 10.82 8 3 C5.36 3 2.72 3 0 3 C0 2.01 0 1.02 0 0 Z " fill="#E5E5E5" transform="translate(23,48)"/>
<path d="M0 0 C0.99 0 1.98 0 3 0 C3 7.59 3 15.18 3 23 C7.29 23 11.58 23 16 23 C16 23.99 16 24.98 16 26 C10.72 26 5.44 26 0 26 C0 17.42 0 8.84 0 0 Z " fill="#FBFBFB" transform="translate(162,48)"/>
<path d="M0 0 C1.423125 -0.061875 2.84625 -0.12375 4.3125 -0.1875 C5.51326172 -0.23970703 5.51326172 -0.23970703 6.73828125 -0.29296875 C9 0 9 0 10.7734375 1.3515625 C12.48891217 3.65707304 12.35928679 5.19756307 12 8 C10 10 10 10 7.6171875 10.1953125 C6.71226563 10.17210937 5.80734375 10.14890625 4.875 10.125 C2.461875 10.063125 2.461875 10.063125 0 10 C0 6.7 0 3.4 0 0 Z " fill="#040404" transform="translate(55,51)"/>
<path d="M0 0 C0.66 0 1.32 0 2 0 C2.67119549 1.4562545 3.33681807 2.91507867 4 4.375 C4.556875 5.59316406 4.556875 5.59316406 5.125 6.8359375 C6 9 6 9 6 11 C2.7 11 -0.6 11 -4 11 C-1.125 2.25 -1.125 2.25 0 0 Z " fill="#111111" transform="translate(88,54)"/>
</svg>
